<svg width="40" height="36" viewBox="0 0 40 36" fill="none" xmlns="http://www.w3.org/2000/svg">
<path d="M0.771561 25.3007L0.771214 25.298C0.658227 24.4045 1.33396 23.6429 2.18559 23.6429H38.067C38.9177 23.6429 39.5957 24.4042 39.489 25.3001C39.0197 29.1211 36.1846 32.0948 32.6115 32.7767L32.2052 32.8543V33.2679V33.4286C32.2052 34.5851 31.2946 35.5 30.1894 35.5H10.0631C8.958 35.5 8.04736 34.5851 8.04736 33.4286V33.2679V32.8543L7.64109 32.7767C4.06773 32.0947 1.23317 29.121 0.771561 25.3007ZM13.8368 0.5C17.0254 0.5 19.6263 3.14256 19.6263 6.42857V7.71429C19.6263 8.15565 19.2738 8.5 18.8684 8.5C15.6799 8.5 13.0789 5.85744 13.0789 2.57143V1.28571C13.0789 0.844346 13.4314 0.5 13.8368 0.5ZM4.40263 3.07143H8.1763C8.93553 3.07143 9.56314 3.69702 9.56314 4.5C9.56314 5.30298 8.93553 5.92857 8.1763 5.92857H4.40263C3.6434 5.92857 3.01579 5.30298 3.01579 4.5C3.01579 3.69702 3.6434 3.07143 4.40263 3.07143ZM1.88684 8.85714H10.6921C11.4513 8.85714 12.0789 9.48274 12.0789 10.2857C12.0789 11.0887 11.4513 11.7143 10.6921 11.7143H1.88684C1.12761 11.7143 0.5 11.0887 0.5 10.2857C0.5 9.48274 1.12761 8.85714 1.88684 8.85714ZM3.01579 16.0714C3.01579 15.2685 3.6434 14.6429 4.40263 14.6429H8.1763C8.93553 14.6429 9.56314 15.2685 9.56314 16.0714C9.56314 16.8744 8.93553 17.5 8.1763 17.5H4.40263C3.6434 17.5 3.01579 16.8744 3.01579 16.0714ZM21.8842 1.28571C21.8842 0.844346 22.2366 0.5 22.6421 0.5C25.8306 0.5 28.4315 3.14256 28.4315 6.42857V7.71429C28.4315 8.15565 28.0791 8.5 27.6736 8.5C24.4851 8.5 21.8842 5.85744 21.8842 2.57143V1.28571ZM31.4473 0.5C34.6359 0.5 37.2368 3.14256 37.2368 6.42857V7.71429C37.2368 8.15565 36.8843 8.5 36.4789 8.5C33.2904 8.5 30.6894 5.85744 30.6894 2.57143V1.28571C30.6894 0.844347 31.0419 0.5 31.4473 0.5ZM37.2368 12.8571V14.1429C37.2368 17.4289 34.6359 20.0714 31.4473 20.0714C31.0419 20.0714 30.6894 19.7271 30.6894 19.2857V18C30.6894 14.714 33.2904 12.0714 36.4789 12.0714C36.8843 12.0714 37.2368 12.4158 37.2368 12.8571ZM27.6736 12.0714C28.0791 12.0714 28.4315 12.4158 28.4315 12.8571V14.1429C28.4315 17.4289 25.8306 20.0714 22.6421 20.0714C22.2366 20.0714 21.8842 19.7271 21.8842 19.2857V18C21.8842 14.714 24.4851 12.0714 27.6736 12.0714ZM19.6263 12.8571V14.1429C19.6263 17.4289 17.0254 20.0714 13.8368 20.0714C13.4314 20.0714 13.0789 19.7271 13.0789 19.2857V18C13.0789 14.714 15.6799 12.0714 18.8684 12.0714C19.2738 12.0714 19.6263 12.4158 19.6263 12.8571Z" fill="white" stroke="#046E1B"/>
</svg>
