<svg width="20" height="23" viewBox="0 0 20 23" fill="none" xmlns="http://www.w3.org/2000/svg">
<path d="M10.0051 0.931397C11.3124 0.930996 12.5854 1.34965 13.6372 2.12592C14.689 2.90218 15.4643 3.99517 15.8493 5.24447C16.2343 6.49376 16.2086 7.83356 15.7762 9.06721C15.3437 10.3009 14.5272 11.3634 13.4464 12.0989C15.3223 12.7869 16.9493 14.0206 18.1181 15.6412C19.2868 17.2618 19.9438 19.1951 20.0044 21.1923C20.0101 21.3031 19.9935 21.414 19.9558 21.5184C19.918 21.6227 19.8598 21.7185 19.7845 21.8001C19.7093 21.8817 19.6185 21.9474 19.5175 21.9934C19.4164 22.0395 19.3073 22.0648 19.1963 22.0681C19.0854 22.0714 18.9749 22.0524 18.8713 22.0124C18.7678 21.9724 18.6733 21.9121 18.5934 21.8351C18.5134 21.7581 18.4497 21.6658 18.4059 21.5639C18.3621 21.4619 18.3391 21.3522 18.3382 21.2412C18.272 19.0753 17.3651 17.0203 15.8097 15.5117C14.2543 14.0031 12.1726 13.1594 10.0057 13.1594C7.83883 13.1594 5.75711 14.0031 4.20168 15.5117C2.64625 17.0203 1.73935 19.0753 1.67315 21.2412C1.66652 21.4623 1.57233 21.6717 1.4113 21.8233C1.25027 21.975 1.0356 22.0564 0.814502 22.0498C0.593406 22.0432 0.384001 21.949 0.232353 21.7879C0.0807047 21.6269 -0.000764221 21.4122 0.00586865 21.1911C0.0667225 19.1942 0.723796 17.2611 1.89253 15.6408C3.06126 14.0204 4.68816 12.7868 6.56386 12.0989C5.48311 11.3634 4.66658 10.3009 4.23411 9.06721C3.80164 7.83356 3.77601 6.49376 4.16098 5.24447C4.54595 3.99517 5.32125 2.90218 6.37308 2.12592C7.42491 1.34965 8.69788 0.930996 10.0051 0.931397ZM5.55904 7.04478C5.55904 8.22396 6.02747 9.35484 6.86127 10.1886C7.69508 11.0224 8.82596 11.4909 10.0051 11.4909C11.1843 11.4909 12.3152 11.0224 13.149 10.1886C13.9828 9.35484 14.4512 8.22396 14.4512 7.04478C14.4512 5.8656 13.9828 4.73472 13.149 3.90091C12.3152 3.06711 11.1843 2.59868 10.0051 2.59868C8.82596 2.59868 7.69508 3.06711 6.86127 3.90091C6.02747 4.73472 5.55904 5.8656 5.55904 7.04478Z" fill="black"/>
</svg>
