<svg width="28" height="28" viewBox="0 0 28 28" fill="none" xmlns="http://www.w3.org/2000/svg">
<path d="M26.936 24.7762L21.7648 19.6202C23.4332 17.4946 24.3385 14.8698 24.3352 12.1676C24.3352 9.76107 23.6215 7.40859 22.2846 5.40764C20.9476 3.40669 19.0473 1.84714 16.8239 0.926207C14.6006 0.00527198 12.1541 -0.235687 9.79381 0.233802C7.43353 0.703291 5.26547 1.86214 3.56381 3.56381C1.86214 5.26547 0.703291 7.43353 0.233802 9.79381C-0.235687 12.1541 0.00527198 14.6006 0.926207 16.8239C1.84714 19.0473 3.40669 20.9476 5.40764 22.2846C7.40859 23.6215 9.76107 24.3352 12.1676 24.3352C14.8698 24.3385 17.4946 23.4332 19.6202 21.7648L24.7762 26.936C24.9176 27.0785 25.0858 27.1917 25.2712 27.2689C25.4565 27.3461 25.6553 27.3859 25.8561 27.3859C26.0569 27.3859 26.2557 27.3461 26.441 27.2689C26.6264 27.1917 26.7946 27.0785 26.936 26.936C27.0785 26.7946 27.1917 26.6264 27.2689 26.441C27.3461 26.2557 27.3859 26.0569 27.3859 25.8561C27.3859 25.6553 27.3461 25.4565 27.2689 25.2712C27.1917 25.0858 27.0785 24.9176 26.936 24.7762ZM3.0419 12.1676C3.0419 10.3627 3.57711 8.59834 4.57986 7.09763C5.5826 5.59692 7.00784 4.42725 8.67534 3.73655C10.3428 3.04585 12.1777 2.86513 13.9479 3.21725C15.7181 3.56936 17.3442 4.4385 18.6204 5.71475C19.8967 6.991 20.7658 8.61704 21.1179 10.3873C21.47 12.1575 21.2893 13.9923 20.5986 15.6598C19.9079 17.3273 18.7383 18.7526 17.2375 19.7553C15.7368 20.7581 13.9725 21.2933 12.1676 21.2933C9.7473 21.2933 7.42615 20.3318 5.71475 18.6204C4.00335 16.909 3.0419 14.5879 3.0419 12.1676Z" fill="black"/>
</svg>
